<?xml version="1.0" standalone="no"?>
<!DOCTYPE svg PUBLIC "-//W3C//DTD SVG 20010904//EN"
 "http://www.w3.org/TR/2001/REC-SVG-20010904/DTD/svg10.dtd">
<svg version="1.0" xmlns="http://www.w3.org/2000/svg"
 width="382.000000pt" height="363.000000pt" viewBox="0 0 382.000000 363.000000"
 preserveAspectRatio="xMidYMid meet" fill="#000000">

<g transform="translate(0.000000,363.000000) scale(0.100000,-0.100000)"
stroke="none">
<path d="M1837 3202 c-115 -231 -430 -839 -477 -922 -20 -36 -66 -121 -102
-190 -36 -69 -100 -190 -143 -270 -42 -80 -102 -192 -132 -250 -57 -107 -155
-289 -248 -460 -53 -97 -71 -140 -60 -140 4 0 37 17 73 39 65 37 416 226 496
266 21 11 44 29 51 40 7 11 70 121 141 245 120 212 185 327 316 565 107 195
131 239 144 263 12 23 23 3 207 -365 107 -214 203 -395 212 -403 9 -8 -77 174
-191 403 -115 229 -211 417 -214 417 -3 0 -96 -166 -208 -368 -112 -202 -224
-404 -250 -448 -26 -45 -76 -133 -112 -197 l-65 -116 -240 -127 c-132 -70
-262 -141 -289 -156 -27 -16 -51 -27 -53 -24 -3 3 6 20 20 38 22 30 147 258
292 533 32 61 88 166 125 235 37 69 82 154 100 190 19 36 77 146 130 245 155
287 349 663 464 893 l106 214 115 -237 c63 -131 115 -239 115 -242 0 -9 514
-1033 583 -1160 121 -226 86 -138 -61 154 -315 624 -391 776 -469 938 -45 94
-122 253 -171 355 -49 102 -92 193 -95 203 -4 9 -10 17 -14 17 -4 0 -48 -80
-96 -178z"/>
<path d="M3225 1613 c-195 -23 -540 -76 -703 -109 -486 -96 -1106 -300 -1436
-472 -113 -59 -323 -187 -500 -306 l-99 -66 -64 -117 c-36 -65 -86 -161 -113
-214 l-49 -97 37 9 c21 4 113 40 204 79 92 38 170 70 173 70 2 0 79 50 171
111 444 296 873 515 1389 709 77 29 167 63 200 75 69 27 495 169 730 245 88
28 178 60 200 70 l40 19 -75 -1 c-41 0 -88 -3 -105 -5z m95 -16 c-368 -114
-961 -319 -1220 -422 -263 -104 -629 -275 -800 -373 -143 -82 -313 -187 -445
-275 -82 -55 -179 -114 -215 -130 -101 -46 -344 -147 -354 -147 -5 0 -2 8 6
18 12 14 92 160 182 337 16 31 46 56 126 110 159 105 356 227 445 277 330 181
973 395 1510 502 196 39 699 113 775 114 20 0 18 -2 -10 -11z"/>
<path d="M3086 1153 c147 -287 333 -643 391 -750 25 -46 41 -83 36 -83 -10 0
-306 66 -441 99 -81 19 -112 34 -112 52 0 13 -358 707 -381 741 l-19 26 64 23
c36 13 63 25 61 27 -6 6 -125 -30 -131 -40 -3 -4 1 -21 9 -36 8 -15 99 -191
202 -392 103 -201 192 -371 199 -378 13 -14 89 -35 276 -78 107 -25 288 -64
297 -64 10 0 -15 53 -128 265 -65 124 -119 227 -119 230 0 2 -35 71 -78 152
-44 81 -111 212 -151 291 -40 78 -77 142 -82 142 -5 0 43 -102 107 -227z"/>
</g>
</svg>
